<svg id="Layer_1" data-name="Layer 1" xmlns="http://www.w3.org/2000/svg" viewBox="0 0 138.14 92.52"><defs><style>.cls-1{fill:#fff;}</style></defs><title>matejinlogo-03-01</title><path class="cls-1" d="M101.73,83.56,91.05,65l-5-8.66a.57.57,0,0,0-.5-.29H53.05a1.13,1.13,0,0,0-1,.57L48.23,63.3a1.15,1.15,0,0,0,1,1.73H79.86a.57.57,0,0,1,.5.29l10,17.37a.58.58,0,0,1-.5.87h-53a.57.57,0,0,0-.5.29l-4.5,7.8a.58.58,0,0,0,.51.87h73.5a.58.58,0,0,0,.5-.87Z"/><path class="cls-1" d="M58.63,8.81,53.73.3a.57.57,0,0,0-1,0L37.42,26.87l-5.16,9L20.59,56.08l-5.17,9L.08,91.67a.56.56,0,0,0,.49.85H10a.58.58,0,0,0,.5-.28L26.22,65l5.16-9L43.06,35.82l5.16-8.95h.06l4.46-7.74a.57.57,0,0,1,1,0L58,26.59a.58.58,0,0,0,.49.28h9.54a.56.56,0,0,0,.49-.85Z"/><path class="cls-1" d="M84.41.28a.56.56,0,0,1,1,0L100.7,26.87l5.16,9,11.67,20.26,5.17,9,15.36,26.66a.55.55,0,0,1-.48.83h-9.5a.58.58,0,0,1-.49-.28L111.9,65l-5.16-9L95.06,35.82,89.9,26.87,79.65,9.09a.61.61,0,0,1,0-.56Z"/></svg>