<svg id="Layer_1" data-name="Layer 1" xmlns="http://www.w3.org/2000/svg" viewBox="0 0 138.97 93.07"><defs><style>.cls-1{fill:#fff;}</style></defs><title>matejinlogo-03</title><polygon class="cls-1" points="102.15 84.11 91.47 65.59 86.31 56.63 75.45 56.63 52.81 56.63 47.65 65.59 80.61 65.59 91.3 84.11 48.91 84.11 36.97 84.11 31.8 93.07 107.31 93.07 102.15 84.11"/><polygon class="cls-1" points="59.05 9.36 53.66 0 37.85 27.42 32.68 36.38 21.01 56.63 15.85 65.59 0 93.07 10.8 93.07 26.64 65.59 31.8 56.63 43.48 36.38 48.64 27.42 48.7 27.42 53.66 18.83 58.61 27.42 69.47 27.42 59.05 9.36"/><polygon class="cls-1" points="85.31 0 101.12 27.42 106.28 36.38 117.96 56.63 123.12 65.59 138.97 93.07 128.17 93.07 112.32 65.59 107.16 56.63 95.48 36.38 90.32 27.42 79.91 9.36 85.31 0"/></svg>